<svg width="24" height="24" viewBox="0 0 24 24" fill="none" xmlns="http://www.w3.org/2000/svg">
<path d="M11 16H13V18H11V16Z" fill="#0F203E"/>
<path d="M16.71 2.28999C16.6166 2.1973 16.5058 2.12398 16.3839 2.07421C16.2621 2.02445 16.1316 1.99923 16 1.99999H8.00002C7.73002 1.99999 7.48002 2.10999 7.29002 2.28999L2.29002 7.28999C2.19734 7.38343 2.12401 7.49424 2.07425 7.61608C2.02448 7.73792 1.99926 7.86838 2.00002 7.99999V16C2.00002 16.27 2.11002 16.52 2.29002 16.71L7.29002 21.71C7.48002 21.9 7.73002 22 8.00002 22H16C16.27 22 16.52 21.89 16.71 21.71L21.71 16.71C21.8027 16.6165 21.876 16.5057 21.9258 16.3839C21.9756 16.2621 22.0008 16.1316 22 16V7.99999C22 7.72999 21.89 7.47999 21.71 7.28999L16.71 2.28999ZM20 15.58L15.59 19.99H8.42002L4.01002 15.58V8.40999L8.42002 3.99999H15.59L20 8.40999V15.58Z" fill="#0F203E"/>
<path d="M13.2701 6.25C11.1901 5.5 8.80006 6.6 8.06006 8.66L9.94006 9.34C10.1201 8.84 10.5001 8.44 11.0101 8.21C11.5201 7.98 12.0901 7.95 12.5901 8.13C12.9726 8.26978 13.3037 8.52249 13.5394 8.85465C13.7751 9.18681 13.9044 9.58274 13.9101 9.99C13.9101 11.03 12.2501 11.85 11.6701 12.06C11.2701 12.2 11.0001 12.58 11.0001 13V14H13.0001V13.66C14.0401 13.15 15.9101 11.97 15.9101 9.98C15.9015 9.16359 15.6442 8.3692 15.1725 7.70278C14.7008 7.03635 14.0372 6.52956 13.2701 6.25Z" fill="#0F203E"/>
</svg>
