<svg width="20" height="20" viewBox="0 0 20 20" fill="none" xmlns="http://www.w3.org/2000/svg">
<path d="M14.186 18.2412C13.3504 18.2412 12.4816 18.0863 11.5796 17.7764C10.6776 17.4665 9.76172 17.0044 8.83203 16.3901C7.90234 15.7759 6.98096 15.0122 6.06787 14.0991C5.15479 13.1916 4.38835 12.2757 3.76855 11.3516C3.1543 10.4219 2.68945 9.50879 2.37402 8.6123C2.06413 7.71582 1.90918 6.86637 1.90918 6.06396C1.90918 5.55485 1.95898 5.10107 2.05859 4.70264C2.1582 4.29867 2.31038 3.93343 2.51514 3.60693C2.71989 3.2749 2.98828 2.96224 3.32031 2.66895C3.34798 2.63574 3.37842 2.60531 3.41162 2.57764C3.44482 2.54997 3.47803 2.51953 3.51123 2.48633C4.06462 2.00488 4.6097 1.76693 5.14648 1.77246C5.45638 1.77799 5.75521 1.86654 6.04297 2.03809C6.33626 2.20964 6.60465 2.47526 6.84814 2.83496L8.57471 5.29199C8.78499 5.58529 8.87907 5.89795 8.85693 6.22998C8.8348 6.55648 8.73796 6.86084 8.56641 7.14307L7.84424 8.31348C7.69482 8.55697 7.68099 8.77832 7.80273 8.97754C7.94661 9.22103 8.15413 9.50602 8.42529 9.83252C8.69645 10.159 8.97591 10.4689 9.26367 10.7622C9.46289 10.9614 9.68148 11.1662 9.91943 11.3765C10.1574 11.5812 10.3815 11.7694 10.5918 11.9409C10.8076 12.1125 10.9792 12.2397 11.1064 12.3228C11.2503 12.4224 11.3831 12.4722 11.5049 12.4722C11.6266 12.4666 11.7594 12.4307 11.9033 12.3643L13.1484 11.7417C13.5469 11.548 13.9038 11.4595 14.2192 11.4761C14.5402 11.4871 14.8722 11.6117 15.2153 11.8496L17.3403 13.3105C17.7111 13.5651 17.9823 13.8363 18.1538 14.124C18.3254 14.4118 18.4111 14.7106 18.4111 15.0205C18.4111 15.2806 18.3503 15.549 18.2285 15.8257C18.1068 16.1024 17.9269 16.3791 17.689 16.6558C17.6558 16.6945 17.6226 16.7277 17.5894 16.7554C17.5617 16.7886 17.5312 16.8245 17.498 16.8633C17.0553 17.3447 16.5739 17.6934 16.0537 17.9092C15.5335 18.1305 14.911 18.2412 14.186 18.2412ZM14.1777 16.8716C14.626 16.8605 15.041 16.7747 15.4229 16.6143C15.8047 16.4593 16.134 16.2241 16.4106 15.9087C16.4383 15.881 16.4632 15.8534 16.4854 15.8257C16.5075 15.798 16.5296 15.7703 16.5518 15.7427C16.7565 15.5047 16.8589 15.264 16.8589 15.0205C16.8589 14.8988 16.8312 14.7853 16.7759 14.6802C16.7261 14.575 16.6403 14.481 16.5186 14.3979L14.6094 13.1279C14.46 13.0339 14.3133 12.9868 14.1694 12.9868C14.0311 12.9813 13.8734 13.0173 13.6963 13.0947L12.3931 13.7339C12.0168 13.9165 11.693 13.9967 11.4219 13.9746C11.1562 13.9469 10.8934 13.8418 10.6333 13.6592C10.4507 13.5374 10.2266 13.3714 9.96094 13.1611C9.69531 12.9453 9.41862 12.7101 9.13086 12.4556C8.8431 12.201 8.57471 11.952 8.32568 11.7085C7.98258 11.3654 7.64502 10.9919 7.31299 10.5879C6.98649 10.1784 6.70426 9.81038 6.46631 9.48389C6.27816 9.22933 6.17578 8.97477 6.15918 8.72021C6.14258 8.46566 6.22282 8.1945 6.3999 7.90674L7.20508 6.58691C7.37109 6.30469 7.38216 6.05843 7.23828 5.84814L5.76904 3.65674C5.61963 3.42985 5.41211 3.31641 5.14648 3.31641C5.03581 3.31641 4.9196 3.34131 4.79785 3.39111C4.67611 3.44092 4.55436 3.51839 4.43262 3.62354C4.40495 3.64567 4.37728 3.66781 4.34961 3.68994C4.32194 3.71208 4.2915 3.73421 4.2583 3.75635C3.94287 4.03857 3.70492 4.37061 3.54443 4.75244C3.38395 5.12874 3.30094 5.54932 3.29541 6.01416C3.27881 6.71143 3.43099 7.46403 3.75195 8.27197C4.07292 9.07992 4.52116 9.90169 5.09668 10.7373C5.6722 11.5674 6.34456 12.3643 7.11377 13.1279C7.87744 13.8861 8.66878 14.5474 9.48779 15.1118C10.3123 15.6763 11.123 16.1134 11.9199 16.4233C12.7223 16.7332 13.4749 16.8826 14.1777 16.8716Z" fill="#132B60"/>
</svg>
