<svg width="28" height="20" viewBox="0 0 28 20" fill="none" xmlns="http://www.w3.org/2000/svg">
<path d="M4.16748 16.9131C2.81722 16.9131 1.80452 16.5894 1.12939 15.9419C0.459798 15.2944 0.0890299 14.3675 0.0170898 13.1611C0.00602214 12.9619 0.0973307 12.8623 0.291016 12.8623H2.2832C2.43815 12.8623 2.52669 12.9564 2.54883 13.1445C2.6097 13.6592 2.77848 14.0604 3.05518 14.3481C3.3374 14.6304 3.72477 14.7715 4.21729 14.7715C5.18018 14.7715 5.66162 14.2983 5.66162 13.3521C5.66162 12.9093 5.52051 12.5496 5.23828 12.2729C4.96159 11.9907 4.48844 11.6725 3.81885 11.3184L3.00537 10.8867C2.33024 10.5326 1.78792 10.1673 1.37842 9.79102C0.968913 9.41471 0.670085 8.99137 0.481934 8.521C0.299316 8.05062 0.208008 7.5 0.208008 6.86914C0.208008 6.11654 0.362956 5.45524 0.672852 4.88525C0.988281 4.31527 1.44206 3.87256 2.03418 3.55713C2.6263 3.23617 3.3374 3.07568 4.16748 3.07568C5.44027 3.07568 6.39209 3.41325 7.02295 4.08838C7.65381 4.75798 7.99967 5.66276 8.06055 6.80273C8.07161 7.00195 7.98031 7.10156 7.78662 7.10156H5.91895C5.7474 7.10156 5.65332 7.01025 5.63672 6.82764C5.57585 6.31299 5.42643 5.91732 5.18848 5.64062C4.95052 5.3584 4.61019 5.21729 4.16748 5.21729C3.76351 5.21729 3.43701 5.3418 3.18799 5.59082C2.93896 5.83984 2.81445 6.16634 2.81445 6.57031C2.81445 7.04069 2.94173 7.43083 3.19629 7.74072C3.45085 8.04508 3.89909 8.36328 4.54102 8.69531L5.35449 9.10205C6.08496 9.47282 6.66048 9.84082 7.08105 10.2061C7.50716 10.5658 7.81152 10.9697 7.99414 11.418C8.17676 11.8662 8.26807 12.4085 8.26807 13.0449C8.26807 14.2126 7.90837 15.1506 7.18896 15.8589C6.46956 16.5617 5.4624 16.9131 4.16748 16.9131ZM13.9624 16.9131C12.4074 16.9131 11.2314 16.3348 10.4346 15.1782C9.64323 14.0216 9.24756 12.3006 9.24756 10.0151C9.24756 7.74072 9.64323 6.01969 10.4346 4.85205C11.2314 3.68441 12.4074 3.10059 13.9624 3.10059C15.4953 3.10059 16.6629 3.68441 17.4653 4.85205C18.2677 6.01969 18.6689 7.74072 18.6689 10.0151C18.6689 12.3006 18.2677 14.0216 17.4653 15.1782C16.6629 16.3348 15.4953 16.9131 13.9624 16.9131ZM13.9624 14.6553C14.6209 14.6553 15.119 14.2817 15.4565 13.5347C15.7941 12.7876 15.9629 11.6144 15.9629 10.0151C15.9629 8.42139 15.7941 7.24821 15.4565 6.49561C15.119 5.73747 14.6209 5.3584 13.9624 5.3584C13.2817 5.3584 12.7726 5.73747 12.4351 6.49561C12.0975 7.24821 11.9287 8.42139 11.9287 10.0151C11.9287 11.6144 12.0975 12.7876 12.4351 13.5347C12.7726 14.2817 13.2817 14.6553 13.9624 14.6553ZM23.7905 16.9131C22.4403 16.9131 21.4276 16.5894 20.7524 15.9419C20.0773 15.2944 19.7065 14.3675 19.6401 13.1611C19.6291 12.9619 19.7204 12.8623 19.9141 12.8623H21.9062C22.0612 12.8623 22.1497 12.9564 22.1719 13.1445C22.2327 13.6592 22.4015 14.0604 22.6782 14.3481C22.9604 14.6304 23.3451 14.7715 23.832 14.7715C24.8005 14.7715 25.2847 14.2983 25.2847 13.3521C25.2847 12.9093 25.1436 12.5496 24.8613 12.2729C24.5846 11.9907 24.1115 11.6725 23.4419 11.3184L22.6284 10.8867C21.9588 10.527 21.4165 10.159 21.0015 9.78271C20.592 9.40641 20.2931 8.98584 20.105 8.521C19.9224 8.05062 19.8311 7.5 19.8311 6.86914C19.8311 6.11654 19.986 5.45524 20.2959 4.88525C20.6113 4.31527 21.0651 3.87256 21.6572 3.55713C22.2493 3.23617 22.9604 3.07568 23.7905 3.07568C25.0633 3.07568 26.0124 3.41325 26.6377 4.08838C27.2686 4.75798 27.6172 5.66276 27.6836 6.80273C27.6947 7.00195 27.6034 7.10156 27.4097 7.10156H25.542C25.3704 7.10156 25.2736 7.01025 25.2515 6.82764C25.1961 6.31299 25.0495 5.91732 24.8115 5.64062C24.5736 5.3584 24.2332 5.21729 23.7905 5.21729C23.3866 5.21729 23.0601 5.3418 22.811 5.59082C22.562 5.83984 22.4375 6.16634 22.4375 6.57031C22.4375 7.04069 22.562 7.43083 22.811 7.74072C23.0656 8.04508 23.5166 8.36328 24.1641 8.69531L24.9775 9.10205C25.708 9.47282 26.2835 9.83805 26.7041 10.1978C27.1302 10.5575 27.4346 10.9642 27.6172 11.418C27.7998 11.8662 27.8911 12.4085 27.8911 13.0449C27.8911 14.2126 27.5314 15.1506 26.812 15.8589C26.0926 16.5617 25.0854 16.9131 23.7905 16.9131Z" fill="#EF4444"/>
</svg>
